<?xml version="1.0" standalone="no"?>
<!DOCTYPE svg PUBLIC "-//W3C//DTD SVG 20010904//EN"
 "http://www.w3.org/TR/2001/REC-SVG-20010904/DTD/svg10.dtd">
<svg version="1.0" xmlns="http://www.w3.org/2000/svg"
 width="240.000000pt" height="240.000000pt" viewBox="0 0 240.000000 240.000000"
 preserveAspectRatio="xMidYMid meet">

<g transform="translate(0.000000,240.000000) scale(0.100000,-0.100000)"
fill="#000000" stroke="none">
<path d="M200 2000 l0 -100 118 0 117 0 239 -576 c191 -459 246 -580 269 -600
l29 -24 429 0 429 0 30 28 c24 22 57 102 185 443 85 229 155 427 155 439 0 12
-15 37 -34 56 l-34 34 -700 0 -699 0 -64 152 c-70 168 -107 218 -176 237 -21
6 -95 11 -165 11 l-128 0 0 -100z m1646 -797 l-112 -298 -334 -3 -335 -2 -117
282 c-64 156 -120 291 -124 301 -6 16 25 17 564 17 l570 0 -112 -297z"/>
<path d="M982 584 c-131 -67 -94 -265 52 -281 115 -13 200 106 151 211 -35 73
-131 106 -203 70z"/>
<path d="M1682 584 c-131 -67 -94 -265 52 -281 115 -13 200 106 151 211 -35
73 -131 106 -203 70z"/>
</g>
</svg>
