<?xml version="1.0" standalone="no"?>
<!DOCTYPE svg PUBLIC "-//W3C//DTD SVG 20010904//EN"
 "http://www.w3.org/TR/2001/REC-SVG-20010904/DTD/svg10.dtd">
<svg version="1.0" xmlns="http://www.w3.org/2000/svg"
 width="575.000000pt" height="230.000000pt" viewBox="0 0 575.000000 230.000000"
 preserveAspectRatio="xMidYMid meet">

<g transform="translate(0.000000,230.000000) scale(0.100000,-0.100000)"
fill="#000000" stroke="none">
<path d="M706 1936 c-7 -29 -369 -892 -396 -946 -24 -47 -57 -77 -105 -94 -38
-14 -32 -15 115 -15 112 0 148 3 130 10 -39 16 -60 40 -59 68 0 14 24 85 53
156 l52 130 205 3 206 2 51 -138 c29 -77 52 -148 52 -159 0 -23 -24 -47 -60
-62 -18 -7 24 -10 150 -10 l175 0 -52 20 c-29 11 -61 31 -71 44 -10 13 -110
243 -222 512 -111 268 -206 492 -210 496 -4 5 -10 -3 -14 -17z m92 -396 c44
-118 83 -223 87 -232 7 -17 -6 -18 -179 -18 -110 0 -186 4 -186 9 0 6 37 106
83 223 46 117 87 222 91 232 4 12 10 16 16 10 5 -5 44 -106 88 -224z"/>
<path d="M2720 1949 c-25 -4 -157 -8 -295 -9 -156 -1 -237 -5 -215 -10 19 -5
47 -23 63 -40 l28 -31 -3 -454 -3 -453 -24 -25 c-12 -14 -39 -30 -60 -35 -25
-7 55 -10 279 -11 l315 -1 42 120 c23 66 40 120 38 120 -3 0 -16 -22 -29 -48
-30 -59 -90 -115 -142 -133 -25 -9 -89 -13 -179 -14 l-140 0 -3 228 -2 227
139 0 c77 0 147 -3 156 -6 9 -4 25 -25 35 -48 l19 -41 0 120 c0 92 -3 114 -11
95 -31 -76 -42 -81 -203 -78 l-130 3 -3 238 -2 237 160 0 c203 0 222 -8 243
-105 3 -11 5 22 6 73 1 103 7 97 -79 81z"/>
<path d="M3260 1951 c-74 -24 -138 -80 -164 -143 -23 -54 -20 -149 5 -208 17
-39 55 -81 194 -209 105 -98 180 -175 190 -198 43 -90 9 -203 -75 -255 -150
-93 -328 6 -330 182 -1 30 -2 33 -12 16 -6 -10 -13 -59 -16 -107 l-5 -88 34
-20 c64 -39 130 -55 224 -55 78 0 97 3 140 26 62 32 88 60 115 121 30 68 36
142 16 208 -17 59 -51 96 -281 309 -113 104 -135 138 -135 208 0 81 36 135
112 167 102 42 238 -22 238 -112 0 -13 5 -23 10 -23 12 0 14 166 2 174 -15 9
-237 15 -262 7z"/>
<path d="M3970 1951 c-74 -24 -138 -80 -164 -143 -23 -54 -20 -149 5 -208 17
-39 55 -81 194 -209 105 -98 180 -175 190 -198 43 -90 9 -203 -75 -255 -150
-93 -328 6 -330 182 -1 30 -2 33 -12 16 -6 -10 -13 -59 -16 -107 l-5 -88 34
-20 c64 -39 130 -55 224 -55 78 0 97 3 140 26 62 32 88 60 115 121 30 68 36
142 17 208 -17 57 -57 101 -287 314 -108 100 -130 134 -130 203 0 81 36 135
112 167 102 42 238 -22 238 -112 0 -13 5 -23 10 -23 12 0 14 166 2 174 -15 9
-237 15 -262 7z"/>
<path d="M4915 1950 c-185 -37 -332 -168 -388 -345 -32 -102 -31 -302 2 -395
46 -134 130 -229 256 -290 273 -134 613 -31 734 222 62 131 76 310 35 448 -53
180 -192 311 -376 355 -67 16 -197 18 -263 5z m247 -50 c178 -55 286 -212 303
-443 22 -286 -130 -513 -367 -550 -225 -35 -421 113 -473 358 -54 254 36 509
213 603 104 56 213 66 324 32z"/>
<path d="M1380 1930 c19 -5 47 -23 63 -40 l28 -31 -3 -454 -3 -453 -24 -25
c-12 -14 -39 -30 -60 -35 -25 -7 55 -10 279 -11 l315 -1 42 120 c23 66 40 120
38 120 -3 0 -16 -22 -29 -48 -30 -59 -90 -115 -142 -133 -25 -9 -89 -13 -179
-14 l-140 0 0 472 0 473 26 26 c15 14 42 30 60 34 21 5 -30 8 -136 8 -110 0
-158 -3 -135 -8z"/>
<path d="M2369 649 c-16 -16 -20 -30 -17 -62 4 -35 1 -45 -19 -62 -30 -25 -34
-77 -8 -105 26 -28 79 -43 138 -36 29 3 57 6 62 6 6 0 33 -2 60 -6 l50 -6 -35
26 c-19 15 -34 32 -33 39 2 7 7 33 12 60 l8 47 -34 0 c-33 0 -34 -1 -19 -22
17 -24 22 -68 8 -68 -16 0 -124 104 -133 128 -21 54 53 100 83 52 15 -24 28
-26 28 -5 0 39 -115 50 -151 14z m77 -186 c45 -40 60 -59 52 -65 -37 -23 -109
5 -127 51 -11 26 -8 71 5 71 3 0 34 -26 70 -57z"/>
<path d="M310 621 c0 -5 9 -11 20 -14 13 -3 20 0 20 9 0 8 -9 14 -20 14 -11 0
-20 -4 -20 -9z"/>
<path d="M447 580 c-14 -30 -40 -88 -59 -127 l-35 -73 23 0 c16 0 22 4 18 14
-3 8 -1 24 6 35 8 16 20 21 54 21 36 0 45 -4 55 -26 6 -14 9 -30 6 -35 -4 -5
14 -9 41 -9 37 0 44 3 36 13 -6 7 -36 64 -66 127 l-55 114 -24 -54z m28 -76
c8 -20 15 -38 15 -40 0 -2 -16 -4 -35 -4 -19 0 -35 2 -35 5 0 11 29 75 34 75
3 0 13 -16 21 -36z"/>
<path d="M931 533 c-7 -54 -15 -108 -18 -120 -7 -31 -38 -29 -60 3 -10 14 -28
37 -39 52 l-21 26 23 19 c29 22 32 67 6 90 -14 13 -38 17 -93 17 l-74 0 3
-106 c2 -71 -1 -110 -9 -120 -10 -12 -5 -14 27 -14 l39 0 -3 115 -3 115 23 0
c13 0 29 -5 36 -12 18 -18 14 -66 -7 -85 -19 -16 -19 -17 4 -64 27 -52 58 -69
129 -69 37 0 42 3 42 23 1 70 5 107 13 107 5 0 28 -30 52 -66 24 -37 45 -61
48 -53 2 7 21 40 41 72 42 66 47 63 52 -30 l3 -53 72 0 c58 0 71 3 67 14 -3 8
-1 24 6 35 8 16 20 21 54 21 36 0 45 -4 55 -26 6 -14 9 -30 6 -35 -4 -5 13 -9
37 -9 l43 0 -60 124 c-33 68 -63 121 -67 117 -3 -3 -29 -55 -56 -116 -43 -95
-53 -110 -73 -110 -23 0 -25 6 -39 107 -8 59 -17 109 -20 112 -3 3 -28 -31
-55 -74 -28 -44 -52 -80 -55 -80 -3 0 -30 39 -61 86 l-56 86 -12 -99z m434
-29 c8 -20 15 -38 15 -40 0 -2 -16 -4 -35 -4 -19 0 -35 2 -35 5 0 11 29 75 34
75 3 0 13 -16 21 -36z"/>
<path d="M1573 615 c-17 -7 -39 -27 -47 -44 -21 -39 -20 -110 0 -140 50 -71
225 -66 223 7 0 25 -1 25 -9 6 -20 -50 -93 -70 -137 -39 -41 29 -52 132 -20
176 33 44 96 51 132 14 l25 -24 0 23 c0 16 -7 26 -22 30 -39 10 -112 6 -145
-9z"/>
<path d="M2027 580 c-14 -30 -40 -88 -59 -127 l-35 -73 23 0 c16 0 22 4 18 14
-3 8 -1 24 6 35 8 16 20 21 54 21 36 0 45 -4 55 -26 6 -14 9 -30 6 -35 -4 -5
14 -9 41 -9 37 0 44 3 36 13 -6 7 -36 64 -66 127 l-55 114 -24 -54z m28 -76
c8 -20 15 -38 15 -40 0 -2 -16 -4 -35 -4 -19 0 -35 2 -35 5 0 11 29 75 34 75
3 0 13 -16 21 -36z"/>
<path d="M3067 580 c-14 -30 -40 -88 -59 -127 l-35 -73 23 0 c16 0 22 4 18 14
-3 8 -1 24 6 35 8 16 20 21 54 21 36 0 45 -4 55 -26 6 -14 9 -30 6 -35 -4 -5
14 -9 41 -9 37 0 44 3 36 13 -6 7 -36 64 -66 127 l-55 114 -24 -54z m28 -76
c8 -20 15 -38 15 -40 0 -2 -16 -4 -35 -4 -19 0 -35 2 -35 5 0 11 29 75 34 75
3 0 13 -16 21 -36z"/>
<path d="M3562 613 c-85 -41 -82 -183 3 -219 45 -18 118 -18 155 1 55 28 77
113 45 174 -28 56 -133 79 -203 44z m127 -12 c30 -30 44 -93 31 -141 -26 -97
-138 -93 -160 5 -18 78 22 155 80 155 17 0 39 -9 49 -19z"/>
<path d="M4165 554 c-21 -43 -45 -98 -56 -121 -22 -50 -49 -56 -76 -17 -10 14
-28 37 -39 52 l-21 26 23 19 c29 22 32 67 6 90 -14 13 -38 17 -93 17 l-74 0 3
-106 c2 -71 -1 -110 -9 -120 -10 -12 -5 -14 27 -14 l39 0 -3 115 -3 115 23 0
c13 0 29 -5 36 -12 18 -18 14 -66 -7 -85 -19 -16 -19 -17 4 -64 27 -53 58 -69
136 -69 38 0 47 3 43 14 -3 8 -1 24 6 35 8 16 20 21 54 21 36 0 45 -4 55 -26
6 -14 9 -30 6 -35 -4 -5 14 -9 41 -9 37 0 44 3 36 13 -6 7 -36 64 -66 127
l-55 114 -36 -80z m40 -50 c8 -20 15 -38 15 -40 0 -2 -16 -4 -35 -4 -19 0 -35
2 -35 5 0 11 29 75 34 75 3 0 13 -16 21 -36z"/>
<path d="M4320 616 c0 -12 6 -12 29 -3 54 20 61 9 61 -106 0 -67 -4 -107 -12
-115 -9 -9 -3 -12 28 -12 l39 0 -3 115 c-4 128 2 139 59 118 23 -9 29 -9 29 3
0 11 -23 14 -115 14 -92 0 -115 -3 -115 -14z"/>
<path d="M4642 613 c-85 -41 -82 -183 3 -219 45 -18 118 -18 155 1 55 28 77
113 45 174 -28 56 -133 79 -203 44z m127 -12 c30 -30 44 -93 31 -141 -26 -97
-138 -93 -160 5 -18 78 22 155 80 155 17 0 39 -9 49 -19z"/>
<path d="M5362 613 c-85 -41 -82 -183 3 -219 45 -18 118 -18 155 1 55 28 77
113 45 174 -28 56 -133 79 -203 44z m127 -12 c30 -30 44 -93 31 -141 -26 -97
-138 -93 -160 5 -18 78 22 155 80 155 17 0 39 -9 49 -19z"/>
<path d="M198 521 c2 -61 -1 -107 -7 -120 -11 -20 -9 -21 26 -21 l38 0 -3 60
-4 60 29 0 c16 0 34 -5 41 -12 9 -9 12 -8 12 8 0 17 -6 19 -40 16 l-40 -4 0
56 c0 54 -1 56 -27 56 l-28 0 3 -99z"/>
<path d="M1818 514 c2 -71 -1 -110 -9 -120 -10 -12 -5 -14 27 -14 l39 0 -3
120 -3 120 -27 0 -27 0 3 -106z"/>
<path d="M2768 521 c2 -61 -1 -107 -7 -120 -12 -21 -10 -21 79 -21 82 0 90 2
90 19 0 18 -2 19 -27 5 -16 -7 -40 -14 -55 -14 l-28 0 0 115 0 115 -27 0 -28
0 3 -99z"/>
<path d="M3268 515 c3 -73 0 -110 -8 -120 -11 -13 -4 -15 46 -15 85 0 132 15
140 45 9 37 -3 73 -28 81 -20 6 -20 8 -5 19 20 14 23 65 5 83 -7 7 -28 12 -47
12 -35 0 -35 0 -13 -16 25 -17 29 -56 8 -77 -12 -11 -11 -15 5 -25 28 -18 26
-76 -3 -96 -44 -31 -48 -24 -48 99 l0 115 -27 0 -28 0 3 -105z"/>
<path d="M4918 514 c2 -71 -1 -110 -9 -120 -10 -12 -5 -14 27 -14 l39 0 -3
115 -3 115 23 0 c13 0 29 -5 36 -12 18 -18 14 -66 -7 -85 -19 -16 -19 -17 4
-64 23 -45 59 -69 102 -69 14 0 9 9 -53 87 l-21 27 23 19 c29 22 32 67 6 90
-14 13 -38 17 -93 17 l-74 0 3 -106z"/>
<path d="M5188 514 c2 -71 -1 -110 -9 -120 -10 -12 -5 -14 27 -14 l39 0 -3
120 -3 120 -27 0 -27 0 3 -106z"/>
</g>
</svg>
